<?xml version="1.0" encoding="utf-8"?>
<!-- Generator: Adobe Illustrator 19.1.0, SVG Export Plug-In . SVG Version: 6.00 Build 0)  -->
<svg version="1.1" xmlns="http://www.w3.org/2000/svg" xmlns:xlink="http://www.w3.org/1999/xlink" x="0px" y="0px"
	 viewBox="87 -315.6 1133.9 1190.6" style="enable-background:new 87 -315.6 1133.9 1190.6;" xml:space="preserve">
<style type="text/css">
	.st0{fill:#B2B2B2;}
	.st1{fill:#B4B4B3;}
	.st2{fill:#898A8A;}
	.st3{fill:#AFAFAF;}
	.st4{fill:#D2D4D5;}
	.st5{fill:#8F8886;}
	.st6{fill:#DADBDA;}
	.st7{fill:#B0B0B0;}
	.st8{fill:#818283;}
	.st9{fill:#FFE37E;}
	.st10{fill:#FFCC00;}
	.st11{fill:#F9C603;}
	.st12{fill:#DBDBDA;}
	.st13{fill:#EE9941;}
	.st14{fill:#EF9A42;}
	.st15{fill:#DEB04D;}
	.st16{display:none;}
	.st17{display:inline;fill:#D3D4D5;}
	.st18{display:inline;fill:#D3D5D5;}
	.st19{display:inline;fill:#AFAFAF;}
	.st20{display:inline;fill:#ACC280;}
	.st21{display:inline;fill:#66AA58;}
	.st22{display:inline;fill:#64A351;}
	.st23{display:inline;fill:#A9CB9C;}
	.st24{display:inline;fill:#585857;}
	.st25{display:inline;fill:#555454;}
	.st26{display:inline;fill:#515150;}
	.st27{display:inline;fill:#4D4D4C;}
	.st28{display:inline;fill:#484847;}
	.st29{display:inline;fill:#434342;}
	.st30{display:inline;fill:#3D3D3C;}
	.st31{display:inline;fill:#343433;}
	.st32{display:inline;fill:#757574;}
	.st33{display:inline;fill:#737372;}
	.st34{display:inline;fill:#717070;}
	.st35{display:inline;fill:#6F6F6E;}
	.st36{display:inline;fill:#6D6C6C;}
	.st37{display:inline;fill:#6B6A6A;}
	.st38{display:inline;fill:#686867;}
	.st39{display:inline;fill:#666665;}
	.st40{display:inline;fill:#636362;}
	.st41{display:inline;fill:#616160;}
	.st42{display:inline;fill:#5E5E5D;}
	.st43{display:inline;fill:#5B5B5A;}
	.st44{display:inline;fill:#998573;}
	.st45{display:inline;fill:#D2D3D4;}
	.st46{display:inline;}
	.st47{fill:#7AB0E0;}
	.st48{fill:none;}
	.st49{font-family:'MyriadPro-Regular';}
	.st50{font-size:12px;}
</style>
<g id="Layer_0">
	<g id="Level1_Floor">
		<polygon class="st0" points="539.6,435.2 543.9,194.3 608.4,193.9 608.2,190.6 724.5,189.7 715.9,432.6 "/>
		<path class="st1" d="M613.3,197.9c-4,0-7.2-2.8-7.1-6.2c0.1-3.5,3.4-6.3,7.4-6.3s7.2,2.8,7.1,6.2
			C620.6,195.1,617.3,197.9,613.3,197.9"/>
		<path class="st1" d="M722.8,199.7c-4,0-7.1-2.8-7-6.2c0.1-3.5,3.5-6.3,7.4-6.3c4,0,7.1,2.8,7,6.2
			C730.1,196.9,726.8,199.7,722.8,199.7"/>
		<path class="st2" d="M605.3,206.2c0.2-9.3,0.3-17.6,0.4-21.4c-0.1,4.7,2.9,5.9,3.1,6l-1.9,75l0.1,1l0.3,0.9l0.4,0.8l0.6,0.7
			l0.8,0.6l0.9,0.4l0.9,0.3l1,0.1l49.2-0.4l1-0.1l1-0.3l0.9-0.5l0.8-0.6l0.7-0.7l0.5-0.8l0.3-0.9l0.1-1l2.1-59.4c0.1,0,0.6,0,2.4,0
			c-0.1,2.4-2.2,68.3-2.3,71.7l0.1,1.1l0.3,1.1l0.6,0.9l0.7,0.6l0.9,0.5l0.9,0.3l1.1,0.3l1.1,0.1l34.8-0.4h5.1l0.9-0.1l1.1-0.3
			l0.9-0.3l0.9-0.5l0.8-0.6l0.7-0.9l0.4-1.1l-2.6,79.9l-0.1,3.8l-115.7,1.4C601.6,359.2,605.1,211.4,605.3,206.2 M713.4,283.5
			L663,284l-1.1,0.3l-0.9,0.3l-0.9,0.5l-0.8,0.6l-0.7,0.9l-0.4,1.1l-0.1,1.1l-2.1,66.5l0.1,1.1l0.3,1l0.6,0.8l0.7,0.6l0.9,0.4
			l0.9,0.3l1.1,0.3l1.1,0.1l49.4-0.4l2.2-0.5l0.7-0.2l0.9-0.5l0.7-0.6l0.7-0.9l0.4-1.1l0.2-1.1l1.2-33.8l1-32.7l-0.1-1.1l-0.3-1.1
			l-0.6-0.9l-0.7-0.6l-0.9-0.5l-0.9-0.3l-1.1-0.3L713.4,283.5 M606.7,276.7l-0.1,0.8l-1.9,78.6l0.1,1.1l0.3,1l0.6,0.8l0.7,0.6
			l0.9,0.4l0.9,0.3l1.1,0.3l1.1,0.1l37.1-0.4l1.1-0.1l1.1-0.3l0.9-0.3l0.9-0.5l0.7-0.6l0.7-0.9l0.4-1.1l0.2-1.5l2.4-78.1l-0.1-0.8
			l-0.2-0.8l-0.4-0.8l-0.5-0.7l-0.6-0.6l-0.7-0.5l-0.8-0.4l-0.8-0.2l-0.8,0.1l-39.2,0.5l-0.9,0.1L610,273l-0.8,0.4l-0.7,0.5
			l-0.6,0.6l-0.5,0.7L607,276L606.7,276.7 M657.3,274.9l-0.1,4.9c0,1.2,1.3,2.2,2.9,2.2h3.7c1.6,0,3-1,3-2.2l0.1-4.9
			c0-1.2-1.2-2.8-2.9-2.8h-3.7C658.8,272.1,657.4,273.7,657.3,274.9 M712,359.4l0.8-0.2l-1.4,0.3L712,359.4"/>
		<path class="st2" d="M618.2,190.9c0.5-3.1-1.3-3.7-1.2-5.3c3.3,1.8,11.5,1.9,13.4,1.9l91.7-0.7c1.8,0-2.4,2.5-2.6,4.1
			c-0.1,0.6,0.2,3.1,1.2,4.1s4.7,1.3,4.8,1.9c0.2,3.4-0.9,4.5-1.1,8c-0.1,2.3-0.3,4.5-0.3,4.6c-7.1,198.6-7.9,221.5-8,223.5h-1.7
			l7.6-213.9c0-0.6,0.5-11.9,0.5-15.1c0-5.6-1.2-6.9-4-8.7c-1.4-0.9-0.4-3.7-3.1-4c-1.5-0.2-4.2-0.2-7-0.2c-0.3,0-0.6,0-0.9,0
			c-1.6,0-2.7,0-3.7,0l-72.6,0.6c-1.4,0-9.1,0.2-14.6,3.6C616.6,195.4,617.7,194.2,618.2,190.9"/>
		<polygon class="st3" points="528.6,189.9 528.9,167.8 548.2,167.6 547.7,189.7 		"/>
		<polygon class="st3" points="399.1,191.9 399.2,168.6 423.7,168.4 423.6,191.7 		"/>
		<polygon class="st4" points="318.1,384.9 318.1,367 348.9,366.6 349,384.5 		"/>
		<polygon class="st4" points="357.7,391.7 357.7,381.1 346.3,381.2 346.2,366.6 357.8,366.4 357.8,192.1 602.5,190.4 601.3,240.2
			549.6,240.4 546.4,389.2 		"/>
		<path class="st5" d="M612.7,183.6c4.2,0,7.6,2.7,7.5,6.1s-3.6,6.2-7.8,6.2s-7.6-2.7-7.5-6.1S608.5,183.6,612.7,183.6 M612.5,193.6
			c2.6,0,4.8-1.7,4.8-3.8c0.1-2.1-2-3.8-4.7-3.8c-2.6,0-4.8,1.7-4.8,3.8C607.8,191.9,609.9,193.6,612.5,193.6"/>
		<path class="st5" d="M724.3,185.8c4.2,0,7.5,2.7,7.4,6.1s-3.6,6.2-7.8,6.2s-7.5-2.7-7.4-6.1C716.6,188.6,720.1,185.8,724.3,185.8
			 M723.9,195.8c2.6,0,4.8-1.7,4.8-3.8c0.1-2.1-2-3.8-4.6-3.8s-4.8,1.7-4.9,3.8C719.3,194.1,721.3,195.8,723.9,195.8"/>
		<path class="st2" d="M724.1,209.6c-7.1,198.6-7.9,221.5-8,223.5C716.2,431.1,717,408.2,724.1,209.6"/>
		<polygon class="st6" points="658.6,355.5 660.5,290 714.3,289.5 712,354.8 		"/>
		<polygon class="st6" points="606.4,356.2 608.3,277.5 652.2,277.1 649.9,355.8 		"/>
		<polygon class="st6" points="608.6,266.7 610.1,203.4 664.9,202.9 663,266.2 		"/>
		<polygon class="st6" points="670.8,279.2 673.2,202.6 717.7,202.2 715,278.8 		"/>
		<polygon class="st7" points="406,202.1 406.1,189.4 607,188.1 606.7,200.6 		"/>
		<g>
			<polygon class="st8" points="687.9,382.6 688.1,375 690.1,375 689.9,382.6 			"/>
			<polygon class="st8" points="692.4,382.5 692.6,375 694.7,374.9 694.4,382.5 			"/>
			<polygon class="st8" points="696.9,382.5 697.2,374.9 699.2,374.9 698.9,382.5 			"/>
			<polygon class="st8" points="701.4,382.4 701.7,374.9 703.7,374.8 703.5,382.4 			"/>
			<polygon class="st8" points="705.9,382.4 706.2,374.8 708.2,374.8 708,382.2 			"/>
			<polygon class="st8" points="710.5,382.2 710.7,374.7 712.8,374.7 712.5,382.2 			"/>
			<polygon class="st8" points="683.3,382.6 683.6,375.1 685.6,375.1 685.4,382.6 			"/>
			<polygon class="st8" points="678.8,382.7 679.1,375.1 681.1,375.1 680.9,382.7 			"/>
			<polygon class="st8" points="669.8,382.8 670,375.2 672,375.2 671.8,382.8 			"/>
			<polygon class="st8" points="674.3,382.8 674.5,375.2 676.6,375.2 676.3,382.7 			"/>
			<polygon class="st8" points="656.2,383 656.4,375.4 658.4,375.4 658.2,383 			"/>
			<polygon class="st8" points="660.7,382.9 660.9,375.4 663,375.2 662.7,382.9 			"/>
			<polygon class="st8" points="665.2,382.9 665.5,375.2 667.5,375.2 667.3,382.8 			"/>
			<polygon class="st8" points="647.1,383.1 647.3,375.5 649.4,375.5 649.1,383.1 			"/>
			<polygon class="st8" points="651.6,383 651.9,375.5 653.9,375.4 653.7,383 			"/>
			<polygon class="st8" points="615.3,383.5 615.5,375.9 617.6,375.9 617.4,383.5 			"/>
			<polygon class="st8" points="619.9,383.4 620.1,375.9 622.1,375.8 621.9,383.4 			"/>
			<polygon class="st8" points="624.4,383.4 624.6,375.8 626.7,375.8 626.5,383.4 			"/>
			<polygon class="st8" points="628.9,383.2 629.2,375.7 631.2,375.7 631,383.2 			"/>
			<polygon class="st8" points="633.5,383.2 633.7,375.7 635.7,375.7 635.5,383.2 			"/>
			<polygon class="st8" points="638,383.2 638.2,375.6 640.3,375.6 640.1,383.2 			"/>
			<polygon class="st8" points="642.6,383.2 642.8,375.6 644.8,375.6 644.6,383.1 			"/>
			<polygon class="st8" points="610.8,383.6 611,376 613,375.9 612.8,383.5 			"/>
			<polygon class="st8" points="588,383.8 588.2,376.2 590.3,376.2 590.1,383.8 			"/>
			<polygon class="st8" points="592.6,383.8 592.8,376.2 594.8,376.2 594.6,383.8 			"/>
			<polygon class="st8" points="597.1,383.7 597.3,376.1 599.4,376.1 599.2,383.7 			"/>
			<polygon class="st8" points="601.7,383.7 601.9,376.1 603.9,376.1 603.7,383.6 			"/>
			<polygon class="st8" points="606.2,383.6 606.4,376 608.5,376 608.3,383.6 			"/>
			<polygon class="st8" points="583.5,383.9 583.7,376.2 585.7,376.2 585.5,383.9 			"/>
			<polygon class="st8" points="569.8,384.1 570,376.5 572,376.5 571.9,384 			"/>
			<polygon class="st8" points="574.4,384 574.6,376.4 576.6,376.4 576.4,384 			"/>
			<polygon class="st8" points="578.9,384 579.1,376.4 581.2,376.2 581,383.9 			"/>
			<polygon class="st8" points="565.3,384.1 565.4,376.5 567.5,376.5 567.3,384.1 			"/>
			<polygon class="st8" points="560.7,384.2 560.9,376.6 562.9,376.6 562.8,384.2 			"/>
			<polygon class="st8" points="551.6,384.2 551.7,376.7 553.8,376.7 553.7,384.2 			"/>
			<polygon class="st8" points="556.2,384.2 556.3,376.6 558.4,376.6 558.2,384.2 			"/>
		</g>
	</g>
</g>
<g id="Layer_1">
	<g id="Level_1_areas">
		<g>
			<path class="st2" d="M606,186.7L606,186.7c0.8,2.5,2.6,3.2,2.7,3.3C608.6,189.9,606.8,189.2,606,186.7"/>
			<path class="st2" d="M668.3,205.1L668.3,205.1L668.3,205.1z"/>
			<path class="st2" d="M725.5,196.2c0.2,3.4-0.9,4.5-1.1,8C724.5,200.7,725.6,199.6,725.5,196.2"/>
			<polygon class="st4" points="357.5,293.7 357.5,275.5 403.5,275.1 403.5,293.2 			"/>
			<polygon class="st9" points="432.6,224 425.4,218.2 426.9,215.9 439.1,215.8 439,219.3 			"/>
			<polygon class="st9" points="422.5,229.5 416.8,224.9 426.1,220 431.8,224.5 			"/>
			<polygon class="st9" points="523.3,224.5 515,218.8 523.5,212 532.2,217.7 			"/>
			<polygon class="st9" points="527.9,233.6 528,227.5 540.9,227.4 540.8,233.5 			"/>
			<polygon class="st9" points="389.6,198 377.8,194.6 377.9,186.6 407.2,186.5 407.1,197.7 			"/>
			<polygon class="st9" points="354.7,232.4 354.7,187 376.2,186.8 376.1,195.6 389.5,199.5 407.1,199.4 407,231.2 			"/>
			<polygon class="st9" points="406.9,239.7 388.1,239.7 384.8,237.7 385,233.6 407,233.4 			"/>
			<polygon class="st9" points="354.9,248.2 354.9,233.8 383.5,233.6 383.4,238 388,241.1 407.2,240.9 407.2,247.8 			"/>
			<polygon class="st9" points="354.9,256.6 354.9,249.4 407.2,248.9 407.2,256.1 			"/>
			<polygon class="st9" points="354.9,265.5 354.9,257.8 407.2,257.4 407.1,265 			"/>
			<polygon class="st9" points="355,286.5 354.9,266.9 407,266.4 406.9,281.8 401.2,286 			"/>
			<polygon class="st9" points="426.8,205.3 418.8,205.3 418.9,186.4 441.7,186.3 441.7,193.9 426.9,194 			"/>
			<polygon class="st9" points="434.7,207.2 427.7,205.2 427.8,195 434.8,194.9 			"/>
			<polygon class="st9" points="441.5,208.1 435.5,208.1 435.6,195 441.6,195 			"/>
			<polygon class="st9" points="448.1,208.1 442.5,208.1 442.6,186.1 448.3,186 			"/>
			<polygon class="st9" points="449.1,208.1 449.3,186.1 454.6,186.1 454.4,208 			"/>
			<polygon class="st9" points="465.1,207.9 455.3,208 455.5,186 465.3,186 			"/>
			<polygon class="st9" points="465.8,207.9 466,186.1 471.5,186 471.3,207.9 			"/>
			<polygon class="st9" points="472.1,207.9 472.4,185.7 478.2,185.7 477.9,207.8 			"/>
			<polygon class="st9" points="478.9,207.8 479.1,185.9 498.3,185.7 498,207.7 			"/>
			<polygon class="st9" points="498.8,207.7 499.1,185.7 516.9,185.6 516.6,202 514.2,207.6 			"/>
			<polygon class="st9" points="517.5,200.5 517.8,185.7 524.9,185.7 524.7,200.5 			"/>
			<polygon class="st9" points="525.5,200.5 525.8,185.7 532.9,185.6 532.6,200.4 			"/>
			<polygon class="st9" points="438,242.6 430.3,234.8 439.1,227.7 442,227.7 441.9,242.6 			"/>
			<polygon class="st9" points="442.9,242.8 443,227.7 449.8,227.6 449.6,242.8 			"/>
			<polygon class="st9" points="450.7,242.8 450.8,227.6 466.2,227.5 466.1,242.6 			"/>
			<polygon class="st9" points="467.2,242.7 467.4,227.4 476.3,227.3 476.3,242.5 			"/>
			<polygon class="st9" points="436.1,264.3 422.9,264.3 422.9,246.9 436.2,258.5 			"/>
			<polygon class="st9" points="422.8,273.7 422.9,265.2 436.1,265.1 436,273.6 			"/>
			<polygon class="st9" points="472.6,260.8 472.9,243.7 477.2,243.7 477.5,227.3 493,227.2 492.9,250 487.3,254.6 487.3,260.7
				"/>
			<polygon class="st9" points="469.8,273.6 437.1,273.7 437.3,258 422.9,245.9 429.8,235.9 437.5,244.2 471.8,243.9 471.4,271
				"/>
			<polygon class="st9" points="494,238 494.1,227.2 501.4,227.1 501.3,237.9 			"/>
			<polygon class="st9" points="502.2,237.9 502.4,227.1 507.3,227 507.1,237.9 			"/>
			<polygon class="st9" points="422.7,296.9 422.8,292.4 434.1,292.3 434.1,296.8 			"/>
			<polygon class="st9" points="464.4,288.5 452.8,288.6 452.9,283.8 422.8,284.1 422.7,278 422.7,274.5 437.3,274.4 469.2,274.3
				464.4,282.5 			"/>
			<polygon class="st9" points="451.9,296.6 435,296.7 435.1,291.6 422.8,291.7 422.8,285.2 452,284.9 			"/>
			<polygon class="st9" points="517.6,237.6 508,237.6 508.1,227 513.7,227 522.1,234.5 522.2,234.6 519.8,237.2 			"/>
			<polygon class="st9" points="542.5,196.9 542.7,185.5 556.9,185.4 556.8,190.9 544.3,196.9 			"/>
			<polygon class="st9" points="563.7,207.6 542.3,207.6 542.5,198 544.8,198 557.8,191.6 557.9,185.4 576.8,185.3 576.2,207.4
				"/>
			<polygon class="st9" points="599.5,206.9 599.6,206.9 577.3,207.1 577.4,200.6 577.8,185.3 601.2,185.2 600.6,206.9 			"/>
			<polygon class="st9" points="557.7,220 557.8,215.4 563.7,215.4 563.6,219.9 			"/>
			<polygon class="st9" points="587.8,219.8 587.9,215.2 593.8,215.1 593.7,219.7 			"/>
			<polygon class="st9" points="588.3,229.9 567.6,229.6 568.4,208.2 587.2,208 587.2,220.3 588.1,220.4 			"/>
			<polygon class="st9" points="541.8,235.2 542.1,215.7 557.1,215.6 557,220.7 563.4,220.6 563.2,235.2 			"/>
			<polygon class="st10" points="344.9,386.4 344.9,377 356.4,376.9 356.4,378.8 362.1,378.7 362.1,386.2 			"/>
			<polygon class="st10" points="344.8,429.1 344.7,387.6 371.6,387.3 371.5,428.7 			"/>
			<polygon class="st10" points="372.8,429 372.9,378.1 401,377.7 401,383.9 414,383.8 413.7,428.4 			"/>
			<polygon class="st10" points="435.9,400.4 436.1,384.1 446.6,384 446.4,400.3 			"/>
			<polygon class="st10" points="415.1,428.4 415.3,383.8 434.8,383.5 434.6,401.6 446,401.5 445.6,428 			"/>
			<polygon class="st10" points="447.7,400.2 447.8,384 456.3,383.9 456.1,400.1 			"/>
			<polygon class="st10" points="467.8,395.4 468,383.7 477.2,383.6 477.1,395.2 			"/>
			<polygon class="st10" points="457.4,400.1 457.6,383.8 466.6,383.7 466.5,400 			"/>
			<polygon class="st10" points="446.9,428 447.2,401.3 467.8,401 467.8,396.6 478.1,396.5 478.2,384 494.8,385.7 494.2,427.3
				"/>
			<polygon class="st10" points="495.5,427.3 496.1,386.4 516.3,386.2 515.6,427 			"/>
			<polygon class="st10" points="536.7,400.4 536.9,386 543.2,385.9 542.9,400.3 			"/>
			<polygon class="st10" points="516.9,427 517.5,386.2 536.2,386 535.9,401.1 542.8,401 542.2,426.7 			"/>
			<polygon class="st10" points="510.9,250.6 494.4,242.4 494.4,239.1 517.2,238.8 518.7,241.1 515.9,244.3 			"/>
			<polygon class="st10" points="506.1,257.5 492.7,251.8 494.3,250.6 494.3,244.1 510.1,251.6 			"/>
			<polygon class="st10" points="502.4,263.7 488.5,260.9 488.5,255.7 492,252.9 505.4,258.6 			"/>
			<polygon class="st10" points="498.6,270.7 472.7,271 472.8,262.2 489.8,262 501.7,264.8 			"/>
			<polygon class="st11" points="547.5,271.8 513,270.6 513.2,268 516.7,257.1 547.6,265.7 			"/>
			<polygon class="st11" points="547,281.2 510.6,280.1 512.7,271.9 547.2,273 			"/>
			<polygon class="st10" points="493.8,281.9 466.2,282.2 472.3,272.2 498.1,271.9 			"/>
			<polygon class="st10" points="465.6,288.6 465.7,283.3 493.4,283.1 491.6,288.4 			"/>
			<polygon class="st10" points="422.7,303.9 422.7,298.2 451.9,297.9 451.9,303.6 			"/>
			<polygon class="st10" points="422.6,310.7 422.7,305 451.9,304.7 448,310.4 			"/>
			<polygon class="st10" points="486.4,318.9 422.6,319.6 422.6,312 448.2,311.8 452.8,305.3 452.9,304.9 453,289.9 491.3,289.6
				490.4,292.8 487.8,304.8 487.6,306 487.1,310 486.6,314.5 			"/>
			<polygon class="st11" points="546.7,294.5 508,290.4 510.2,281.6 546.9,282.5 			"/>
			<polygon class="st11" points="546.8,298.6 507,293.2 507.7,291.5 546.9,296 			"/>
			<polygon class="st10" points="501.7,315.6 503.8,307.4 518.9,309.9 518.8,315.4 			"/>
			<polygon class="st10" points="546.9,313.7 504.1,306.3 506.2,298.4 547.1,304.1 			"/>
			<polygon class="st10" points="497.9,327.6 499.2,323.4 501.4,316.7 519.8,316.5 519.9,310 547,315.2 546.8,327.1 			"/>
			<polygon class="st10" points="497.8,335.8 497.9,328.8 522.2,328.5 522.1,335.5 			"/>
			<polygon class="st10" points="497.6,343.4 497.7,336.9 522.1,336.7 522,343.1 			"/>
			<polygon class="st10" points="497.4,354.8 497.6,344.6 521.9,344.2 521.8,354.5 			"/>
			<polygon class="st10" points="497.3,363.2 497.4,355.9 518,355.7 517.9,363 			"/>
			<polygon class="st10" points="518.8,368.8 519,355.6 522.8,355.6 523.2,328.6 546.9,328.4 546.1,368.5 			"/>
			<polygon class="st10" points="422.5,328.8 422.5,320.8 466.8,320.3 466.7,328.3 			"/>
			<polygon class="st10" points="467.8,325.3 467.8,320.3 486.4,320.1 486.3,325.1 			"/>
			<polygon class="st10" points="422.5,335.7 422.5,329.9 466.9,329.4 466.8,335.2 			"/>
			<polygon class="st10" points="467.7,337.5 467.8,326.4 486.3,326.2 486.2,337.3 			"/>
			<polygon class="st10" points="422.4,345.6 422.4,336.9 466.8,336.4 466.7,345.1 			"/>
			<polygon class="st10" points="467.7,345 467.8,338.6 486.3,338.4 486.2,344.8 			"/>
			<polygon class="st10" points="422.4,351.1 422.4,346.7 441.4,346.5 441.4,350.8 			"/>
			<polygon class="st10" points="422.4,355.9 422.4,351.7 441.4,351.6 441.3,355.7 			"/>
			<polygon class="st10" points="422.3,360.6 422.3,356.9 435.3,356.8 435.3,360.5 			"/>
			<polygon class="st10" points="426.4,369.2 422.3,365.6 422.3,361.5 435.3,361.3 435.2,369.1 			"/>
			<polygon class="st10" points="436,369.1 436.1,356.7 441.3,356.6 441.2,369 			"/>
			<polygon class="st10" points="442.1,369 442.3,346.4 457.8,346.3 457.9,351.7 450.3,351.8 450.1,368.9 			"/>
			<polygon class="st10" points="451.1,369 451.3,352.9 457.7,352.9 457.6,368.9 			"/>
			<polygon class="st10" points="458.5,369.5 458.8,346.5 465.4,346.4 465.1,369.4 			"/>
			<polygon class="st10" points="466.1,351.9 466.2,346.4 486.2,346.2 486.2,351.7 			"/>
			<polygon class="st10" points="466.1,369.4 466.1,364.6 473.2,364.5 473.1,369.3 			"/>
			<polygon class="st10" points="473.7,369.3 473.8,363.9 466.2,364 466.3,352.7 479,352.6 478.8,369.2 			"/>
			<polygon class="st10" points="479.7,364.3 479.9,352.8 486.1,352.7 486,364.3 			"/>
			<polygon class="st10" points="354.7,302.9 354.7,287.7 401.4,287.2 401.3,302.4 			"/>
			<polygon class="st10" points="354.7,309.9 354.7,304 401.3,303.6 401.3,309.4 			"/>
			<polygon class="st10" points="354.7,316.9 354.7,311.3 401.3,310.8 401.2,316.4 			"/>
			<polygon class="st10" points="354.7,323.5 354.7,318.2 401.2,317.7 401.2,323 			"/>
			<polygon class="st10" points="354.7,330 354.7,324.7 401.2,324.2 401.2,329.5 			"/>
			<polygon class="st10" points="354.7,336.7 354.7,331.3 401.2,330.6 401.2,336.2 			"/>
			<polygon class="st10" points="401.1,342.8 354.8,343.3 354.7,337.8 401.2,337.2 			"/>
			<polygon class="st10" points="354.8,349.9 354.8,344.4 401.1,343.9 401.1,349.4 			"/>
			<polygon class="st10" points="354.8,361.9 354.8,350.9 369,350.8 369,361.8 			"/>
			<polygon class="st10" points="368.9,361.7 369,350.8 380.7,350.7 380.7,361.6 			"/>
			<polygon class="st10" points="381.4,361.6 381.4,350.7 401.1,350.5 401.1,361.4 			"/>
			<polygon class="st12" points="669.3,421.1 670,400.2 707.7,399.7 707,420.6 			"/>
			<polygon class="st13" points="553.5,426.7 542.9,426.8 543.4,401.2 553.7,401.1 			"/>
			<polygon class="st13" points="562.7,426.7 554,426.7 554.4,401.2 554.5,395.9 563.4,395.7 			"/>
			<polygon class="st13" points="563.4,426.7 564,395.7 583.5,395.5 582.8,426.4 			"/>
			<polygon class="st13" points="583.9,426.4 584.5,395.4 599.9,395.2 599.2,426.2 			"/>
			<polygon class="st13" points="602.7,426.1 603.5,395.9 654,395.2 653.1,425.4 			"/>
			<path class="st13" d="M711.1,424.7l-46.5,0.6l0.9-30.2l46.7-0.6L711.1,424.7z M674.6,402.6l-0.5,15l27.3-0.4l0.5-15L674.6,402.6"
				/>
			<polygon class="st14" points="607.9,213 608.2,199.3 629.2,199.1 628.8,212.8 			"/>
			<polygon class="st14" points="607.5,230.6 607.9,214.1 621.5,214 621.1,230.5 			"/>
			<polygon class="st14" points="607.1,249.2 607.5,231.8 621,231.7 620.5,249.1 			"/>
			<polygon class="st14" points="606.7,262.3 607,250.2 627.8,250.1 627.5,262.1 			"/>
			<polygon class="st14" points="628.5,262.4 628.9,250.3 648.2,250.1 649.3,212.6 630.1,212.8 630.6,199.1 663,198.9 661.1,262.1
							"/>
			<path class="st14" d="M713.3,274.5l-44,0.4l2.3-76.1l44.3-0.3L713.3,274.5z M684.9,211.8l-1.6,50.1l16.6-0.1l1.7-50.1
				L684.9,211.8"/>
			<polygon class="st14" points="605.2,303 605.9,273.3 620.1,273.1 619.3,302.9 			"/>
			<polygon class="st14" points="604.6,321.2 605.1,304.4 619.2,304.2 618.8,321 			"/>
			<polygon class="st14" points="604.5,331.5 604.7,322.4 618.8,322.3 618.6,331.3 			"/>
			<polygon class="st14" points="603.8,351.8 604.3,332.4 618.5,332.2 618.1,351.6 			"/>
			<polygon class="st14" points="635.9,337.9 637.3,284.7 621.3,284.9 621.5,272.8 650.6,272.6 648.7,337.7 			"/>
			<polygon class="st14" points="669.3,334.5 657.3,334.5 658.7,285.3 712.9,284.8 711.2,333.8 698.4,334 699.7,296.9 670.5,297.1
							"/>
			<polygon class="st14" points="618.9,351.6 619.3,339.7 633.4,339.6 633.1,351.4 			"/>
			<polygon class="st14" points="634.2,351.4 634.5,339.6 648.6,339.4 648.3,351.3 			"/>
			<polygon class="st14" points="656.8,351.1 657.2,335.9 666.9,335.8 666.5,350.9 			"/>
			<polygon class="st14" points="667.4,350.9 667.9,335.8 676.6,335.7 676.1,350.8 			"/>
			<polygon class="st14" points="677.1,350.8 677.6,335.7 685.5,335.7 685,350.7 			"/>
			<polygon class="st14" points="701.5,350.5 686,350.7 686.6,335.7 702,335.7 			"/>
			<polygon class="st14" points="702.4,350.5 702.9,335.9 711.1,335.8 710.6,350.4 			"/>
			<polygon class="st10" points="411.1,307 411,303.4 407.3,301.9 407.3,298.2 407.4,298 407.7,297.9 407.9,297.8 417.7,297.7
				417.8,297.7 418.3,297.7 418.7,297.7 418.9,297.7 419.1,297.8 419.2,297.9 419.2,298.1 419.2,298.4 419.2,298.8 419.2,305.8
				417.5,307 			"/>
			<polygon class="st10" points="407.2,365.7 406.9,365.6 406.8,365.6 406.7,365.5 406.6,365.3 406.6,361 410.2,357 415.2,357
				415.5,357 416.4,357 417,357 417.3,357.1 417.5,357.2 417.7,357.4 417.8,357.5 417.9,357.6 418,357.6 418,357.7 418,357.9
				418,358 418,364.5 418,364.6 418,364.7 417.9,364.8 417.8,365 417.7,365.1 417.7,365.1 417.5,365.2 417.3,365.4 416.8,365.5
				416.4,365.5 414.4,365.6 413.8,365.6 413.3,365.6 			"/>
			<polygon class="st10" points="407.3,336.1 407.3,330.5 418.9,330.4 418.9,336 			"/>
		</g>
		<polygon class="st13" points="558,407.8 560.1,407.4 559.1,404.5 557,404.8 		"/>
		<g>
			<polygon class="st9" points="567.6,234.9 600,234.8 600,234.1 600.4,215.1 594.5,215.1 594.4,220.3 588.1,220.4 587.8,229.3
				567.6,229.4 			"/>
			<polygon class="st15" points="600,234.8 601.9,239.5 569.5,239.6 567.5,235 			"/>
		</g>
	</g>
</g>
<g id="Layer_3">
	<line class="st48" x1="333.5" y1="372.1" x2="403.5" y2="371.4"/>
	<line class="st48" x1="403.5" y1="371.4" x2="419.2" y2="371.4"/>
	<line class="st48" x1="419.2" y1="371.4" x2="418.9" y2="377.7"/>
	<line class="st48" x1="418.9" y1="377.7" x2="488.5" y2="378.5"/>
	<line class="st48" x1="488.5" y1="378.5" x2="551.6" y2="380.5"/>
	<line class="st48" x1="551.6" y1="380.5" x2="551.6" y2="389.5"/>
	<line class="st48" x1="598.2" y1="389.5" x2="602.5" y2="291.5"/>
	<line class="st48" x1="599.4" y1="362.9" x2="714.3" y2="360.6"/>
	<line class="st48" x1="602.8" y1="274.9" x2="606" y2="186.7"/>
	<line class="st48" x1="603.9" y1="244.1" x2="530.3" y2="244.7"/>
	<line class="st48" x1="530.3" y1="244.7" x2="521.2" y2="244.4"/>
	<line class="st48" x1="518.9" y1="244.6" x2="493" y2="303"/>
	<line class="st48" x1="546.9" y1="300.9" x2="497" y2="292.3"/>
	<line class="st48" x1="497" y1="292.3" x2="491.3" y2="376.7"/>
	<line class="st48" x1="403.5" y1="371.4" x2="406" y2="292.3"/>
	<line class="st48" x1="419.2" y1="373.3" x2="419.2" y2="293.7"/>
	<line class="st48" x1="419.2" y1="293.7" x2="413.1" y2="279.7"/>
	<line class="st48" x1="406.6" y1="294.5" x2="413.1" y2="279.7"/>
	<line class="st48" x1="413.1" y1="279.7" x2="412.3" y2="207.2"/>
	<line class="st48" x1="412.3" y1="213" x2="513" y2="212"/>
	<line class="st48" x1="412.3" y1="240.9" x2="447.7" y2="213"/>
	<line class="st48" x1="504.1" y1="213" x2="524.9" y2="233.4"/>
	<line class="st48" x1="524.9" y1="233.4" x2="524.9" y2="242.6"/>
	<line class="st48" x1="523.6" y1="230.5" x2="534.4" y2="218.2"/>
	<line class="st48" x1="536.7" y1="217.5" x2="521.9" y2="207.1"/>
	<line class="st48" x1="521.9" y1="207.1" x2="510.1" y2="215.8"/>
	<line class="st48" x1="536.7" y1="215.8" x2="542.5" y2="212"/>
</g>
<g id="Layer_4">
	<rect x="558.2" y="312.7" class="st48" width="37" height="26.3"/>
	<text transform="matrix(1 0 0 1 558.1777 321.2194)"><tspan x="0" y="0" class="st49 st50">TABY </tspan><tspan x="0" y="14.4" class="st49 st50">TORG</tspan></text>
</g>
</svg>
