<svg version="1.1" id="svgroot" xmlns="http://www.w3.org/2000/svg" xmlns:xlink="http://www.w3.org/1999/xlink" x="0px" y="0px"
	 viewBox="261 -199.6 1133.9 1190.6" style="enable-background:new 261 -199.6 1133.9 1190.6;" xml:space="preserve">
<g id="Layer_0">
	<g id="Level1_Floor">
		<polygon style="fill:#B2B2B2;" points="800.6,235.6 804.9,-5.3 869.4,-5.7 869.2,-9 985.5,-9.9 976.9,233 		"/>
		<path style="fill:#B4B4B3;" d="M874.3-1.7c-4,0-7.2-2.8-7.1-6.2c0.1-3.5,3.4-6.3,7.4-6.3s7.2,2.8,7.1,6.2 C881.6-4.5,878.3-1.7,874.3-1.7"/>
		<path style="fill:#B4B4B3;" d="M983.8,0.1c-4,0-7.1-2.8-7-6.2c0.1-3.5,3.5-6.3,7.4-6.3c4,0,7.1,2.8,7,6.2	C991.1-2.7,987.8,0.1,983.8,0.1"/>
		<path style="fill:#898A8A;" d="M866.3,6.6c0.2-9.3,0.3-17.6,0.4-21.4c-0.1,4.7,2.9,5.9,3.1,6l-1.9,75l0.1,1l0.3,0.9l0.4,0.8 l0.6,0.7l0.8,0.6l0.9,0.4l0.9,0.3l1,0.1l49.2-0.4l1-0.1l1-0.3l0.9-0.5l0.8-0.6l0.7-0.7l0.5-0.8l0.3-0.9l0.1-1l2.1-59.4c0.1,0,0.6,0,2.4,0c-0.1,2.4-2.2,68.3-2.3,71.7l0.1,1.1l0.3,1.1l0.6,0.9l0.7,0.6l0.9,0.5l0.9,0.3l1.1,0.3l1.1,0.1l34.8-0.4h5.1	l0.9-0.1l1.1-0.3l0.9-0.3l0.9-0.5l0.8-0.6l0.7-0.9l0.4-1.1l-2.6,79.9l-0.1,3.8l-115.7,1.4C862.6,159.6,866.1,11.8,866.3,6.6M974.4,83.9L924,84.4l-1.1,0.3L922,85l-0.9,0.5l-0.8,0.6l-0.7,0.9l-0.4,1.1l-0.1,1.1l-2.1,66.5l0.1,1.1l0.3,1l0.6,0.8l0.7,0.6 l0.9,0.4l0.9,0.3l1.1,0.3l1.1,0.1l49.4-0.4l2.2-0.5l0.7-0.2l0.9-0.5l0.7-0.6l0.7-0.9l0.4-1.1l0.2-1.1l1.2-33.8l1-32.7l-0.1-1.1	l-0.3-1.1l-0.6-0.9l-0.7-0.6l-0.9-0.5l-0.9-0.3l-1.1-0.3L974.4,83.9 M867.7,77.1l-0.1,0.8l-1.9,78.6l0.1,1.1l0.3,1l0.6,0.8 l0.7,0.6l0.9,0.4l0.9,0.3l1.1,0.3l1.1,0.1l37.1-0.4l1.1-0.1l1.1-0.3l0.9-0.3l0.9-0.5l0.7-0.6l0.7-0.9l0.4-1.1l0.2-1.5l2.4-78.1	l-0.1-0.8l-0.2-0.8l-0.4-0.8l-0.5-0.7l-0.6-0.6l-0.7-0.5l-0.8-0.4l-0.8-0.2l-0.8,0.1l-39.2,0.5l-0.9,0.1l-0.9,0.2l-0.8,0.4	l-0.7,0.5l-0.6,0.6l-0.5,0.7l-0.4,0.8L867.7,77.1 M918.3,75.3l-0.1,4.9c0,1.2,1.3,2.2,2.9,2.2h3.7c1.6,0,3-1,3-2.2l0.1-4.9 c0-1.2-1.2-2.8-2.9-2.8h-3.7C919.8,72.5,918.4,74.1,918.3,75.3 M973,159.8l0.8-0.2l-1.4,0.3L973,159.8"/>
		<path style="fill:#898A8A;" d="M879.2-8.7c0.5-3.1-1.3-3.7-1.2-5.3c3.3,1.8,11.5,1.9,13.4,1.9l91.7-0.7c1.8,0-2.4,2.5-2.6,4.1 c-0.1,0.6,0.2,3.1,1.2,4.1s4.7,1.3,4.8,1.9c0.2,3.4-0.9,4.5-1.1,8c-0.1,2.3-0.3,4.5-0.3,4.6c-7.1,198.6-7.9,221.5-8,223.5h-1.7 L983,19.5c0-0.6,0.5-11.9,0.5-15.1c0-5.6-1.2-6.9-4-8.7c-1.4-0.9-0.4-3.7-3.1-4c-1.5-0.2-4.2-0.2-7-0.2c-0.3,0-0.6,0-0.9,0c-1.6,0-2.7,0-3.7,0l-72.6,0.6c-1.4,0-9.1,0.2-14.6,3.6C877.6-4.2,878.7-5.4,879.2-8.7"/>
		<polygon style="fill:#AFAFAF;" points="789.6,-9.7 789.9,-31.8 809.2,-32 808.7,-9.9 		"/>
		<polygon style="fill:#AFAFAF;" points="660.1,-7.7 660.2,-31 684.7,-31.2 684.6,-7.9"/>
		<polygon style="fill:#D2D4D5;" points="579.1,185.3 579.1,167.4 609.9,167 610,184.9 		"/>
		<polygon style="fill:#D2D4D5;" points="618.7,192.1 618.7,181.5 607.3,181.6 607.2,167 618.8,166.8 618.8,-7.5 863.5,-9.2
			862.3,40.6 810.6,40.8 807.4,189.6 		"/>
		<path style="fill:#8F8886;" d="M873.7-16c4.2,0,7.6,2.7,7.5,6.1s-3.6,6.2-7.8,6.2s-7.6-2.7-7.5-6.1S869.5-16,873.7-16 M873.5-6
			c2.6,0,4.8-1.7,4.8-3.8c0.1-2.1-2-3.8-4.7-3.8c-2.6,0-4.8,1.7-4.8,3.8C868.8-7.7,870.9-6,873.5-6"/>
		<path id="samplepath" style="fill:#8F8886;" d="M985.3-13.8c4.2,0,7.5,2.7,7.4,6.1s-3.6,6.2-7.8,6.2s-7.5-2.7-7.4-6.1
			C977.6-11,981.1-13.8,985.3-13.8 M984.9-3.8c2.6,0,4.8-1.7,4.8-3.8c0.1-2.1-2-3.8-4.6-3.8s-4.8,1.7-4.9,3.8
			C980.3-5.5,982.3-3.8,984.9-3.8"/>
		<path style="fill:#898A8A;" d="M985.1,10c-7.1,198.6-7.9,221.5-8,223.5C977.2,231.5,978,208.6,985.1,10"/>
		<polygon style="fill:#DADBDA;" points="919.6,155.9 921.5,90.4 975.3,89.9 973,155.2 		"/>
		<polygon style="fill:#DADBDA;" points="867.4,156.6 869.3,77.9 913.2,77.5 910.9,156.2 		"/>
		<polygon style="fill:#DADBDA;" points="869.6,67.1 871.1,3.8 925.9,3.3 924,66.6 		"/>
		<polygon style="fill:#DADBDA;" points="931.8,79.6 934.2,3 978.7,2.6 976,79.2 		"/>
		<polygon style="fill:#B0B0B0;" points="667,2.5 667.1,-10.2 868,-11.5 867.7,1 		"/>
		<g>
			<polygon style="fill:#818283;" points="948.9,183 949.1,175.4 951.1,175.4 950.9,183 			"/>
			<polygon style="fill:#818283;" points="953.4,182.9 953.6,175.4 955.7,175.3 955.4,182.9 			"/>
			<polygon style="fill:#818283;" points="957.9,182.9 958.2,175.3 960.2,175.3 959.9,182.9 			"/>
			<polygon style="fill:#818283;" points="962.4,182.8 962.7,175.3 964.7,175.2 964.5,182.8 			"/>
			<polygon style="fill:#818283;" points="966.9,182.8 967.2,175.2 969.2,175.2 969,182.6 			"/>
			<polygon style="fill:#818283;" points="971.5,182.6 971.7,175.1 973.8,175.1 973.5,182.6 			"/>
			<polygon style="fill:#818283;" points="944.3,183 944.6,175.5 946.6,175.5 946.4,183 			"/>
			<polygon style="fill:#818283;" points="939.8,183.1 940.1,175.5 942.1,175.5 941.9,183.1 			"/>
			<polygon style="fill:#818283;" points="930.8,183.2 931,175.6 933,175.6 932.8,183.2 			"/>
			<polygon style="fill:#818283;" points="935.3,183.2 935.5,175.6 937.6,175.6 937.3,183.1 			"/>
			<polygon style="fill:#818283;" points="917.2,183.4 917.4,175.8 919.4,175.8 919.2,183.4 			"/>
			<polygon style="fill:#818283;" points="921.7,183.3 921.9,175.8 924,175.6 923.7,183.3 			"/>
			<polygon style="fill:#818283;" points="926.2,183.3 926.5,175.6 928.5,175.6 928.3,183.2 			"/>
			<polygon style="fill:#818283;" points="908.1,183.5 908.3,175.9 910.4,175.9 910.1,183.5 			"/>
			<polygon style="fill:#818283;" points="912.6,183.4 912.9,175.9 914.9,175.8 914.7,183.4 			"/>
			<polygon style="fill:#818283;" points="876.3,183.9 876.5,176.3 878.6,176.3 878.4,183.9 			"/>
			<polygon style="fill:#818283;" points="880.9,183.8 881.1,176.3 883.1,176.2 882.9,183.8 			"/>
			<polygon style="fill:#818283;" points="885.4,183.8 885.6,176.2 887.7,176.2 887.5,183.8 			"/>
			<polygon style="fill:#818283;" points="889.9,183.6 890.2,176.1 892.2,176.1 892,183.6 			"/>
			<polygon style="fill:#818283;" points="894.5,183.6 894.7,176.1 896.7,176.1 896.5,183.6 			"/>
			<polygon style="fill:#818283;" points="899,183.6 899.2,176 901.3,176 901.1,183.6 			"/>
			<polygon style="fill:#818283;" points="903.6,183.6 903.8,176 905.8,176 905.6,183.5 			"/>
			<polygon style="fill:#818283;" points="871.8,184 872,176.4 874,176.3 873.8,183.9 			"/>
			<polygon style="fill:#818283;" points="849,184.2 849.2,176.6 851.3,176.6 851.1,184.2 			"/>
			<polygon style="fill:#818283;" points="853.6,184.2 853.8,176.6 855.8,176.6 855.6,184.2 			"/>
			<polygon style="fill:#818283;" points="858.1,184.1 858.3,176.5 860.4,176.5 860.2,184.1 			"/>
			<polygon style="fill:#818283;" points="862.7,184.1 862.9,176.5 864.9,176.5 864.7,184 			"/>
			<polygon style="fill:#818283;" points="867.2,184 867.4,176.4 869.5,176.4 869.3,184 			"/>
			<polygon style="fill:#818283;" points="844.5,184.3 844.7,176.6 846.7,176.6 846.5,184.3 			"/>
			<polygon style="fill:#818283;" points="830.8,184.5 831,176.9 833,176.9 832.9,184.4 			"/>
			<polygon style="fill:#818283;" points="835.4,184.4 835.6,176.8 837.6,176.8 837.4,184.4 			"/>
			<polygon style="fill:#818283;" points="839.9,184.4 840.1,176.8 842.2,176.6 842,184.3 			"/>
			<polygon style="fill:#818283;" points="826.3,184.5 826.4,176.9 828.5,176.9 828.3,184.5 			"/>
			<polygon style="fill:#818283;" points="821.7,184.6 821.9,177 823.9,177 823.8,184.6 			"/>
			<polygon style="fill:#818283;" points="812.6,184.6 812.7,177.1 814.8,177.1 814.7,184.6 			"/>
			<polygon style="fill:#818283;" points="817.2,184.6 817.3,177 819.4,177 819.2,184.6 			"/>
		</g>
	</g>
</g>
<g id="Layer_1">
	<g id="Level_1_areas">
		<g>
			<path style="fill:#898A8A;" d="M867-12.9L867-12.9c0.8,2.5,2.6,3.2,2.7,3.3C869.6-9.7,867.8-10.4,867-12.9"/>
			<path style="fill:#898A8A;" d="M929.3,5.5L929.3,5.5L929.3,5.5z"/>
			<path style="fill:#898A8A;" d="M986.5-3.4c0.2,3.4-0.9,4.5-1.1,8C985.5,1.1,986.6,0,986.5-3.4"/>
			<polygon style="fill:#FFE37E;" points="693.6,24.4 686.4,18.6 687.9,16.3 700.1,16.2 700,19.7 			"/>
			<polygon style="fill:#FFE37E;" points="683.5,29.9 677.8,25.3 687.1,20.4 692.8,24.9 			"/>
			<polygon style="fill:#FFE37E;" points="784.3,24.9 776,19.2 784.5,12.4 793.2,18.1 			"/>
			<polygon style="fill:#FFE37E;" points="788.9,34 789,27.9 801.9,27.8 801.8,33.9 			"/>
			<polygon style="fill:#FFE37E;" points="650.6,-1.6 638.8,-5 638.9,-13 668.2,-13.1 668.1,-1.9 			"/>
			<polygon style="fill:#FFE37E;" points="615.7,32.8 615.7,-12.6 637.2,-12.8 637.1,-4 650.5,-0.1 668.1,-0.2 668,31.6 			"/>
			<polygon style="fill:#FFE37E;" points="667.9,40.1 649.1,40.1 645.8,38.1 646,34 668,33.8 			"/>
			<polygon style="fill:#FFE37E;" points="615.9,48.6 615.9,34.2 644.5,34 644.4,38.4 649,41.5 668.2,41.3 668.2,48.2 			"/>
			<polygon style="fill:#FFE37E;" points="615.9,57 615.9,49.8 668.2,49.3 668.2,56.5 			"/>
			<polygon style="fill:#FFE37E;" points="615.9,65.9 615.9,58.2 668.2,57.8 668.1,65.4 			"/>
			<polygon style="fill:#FFE37E;" points="616,86.9 615.9,67.3 668,66.8 667.9,82.2 662.2,86.4 			"/>
			<polygon style="fill:#FFE37E;" points="687.8,5.7 679.8,5.7 679.9,-13.2 702.7,-13.3 702.7,-5.7 687.9,-5.6 			"/>
			<polygon style="fill:#FFE37E;" points="695.7,7.6 688.7,5.6 688.8,-4.6 695.8,-4.7 			"/>
			<polygon style="fill:#FFE37E;" points="702.5,8.5 696.5,8.5 696.6,-4.6 702.6,-4.6 			"/>
			<polygon style="fill:#FFE37E;" points="709.1,8.5 703.5,8.5 703.6,-13.5 709.3,-13.6 			"/>
			<polygon style="fill:#FFE37E;" points="710.1,8.5 710.3,-13.5 715.6,-13.5 715.4,8.4 			"/>
			<polygon style="fill:#FFE37E;" points="726.1,8.3 716.3,8.4 716.5,-13.6 726.3,-13.6 			"/>
			<polygon style="fill:#FFE37E;" points="726.8,8.3 727,-13.5 732.5,-13.6 732.3,8.3 			"/>
			<polygon style="fill:#FFE37E;" points="733.1,8.3 733.4,-13.9 739.2,-13.9 738.9,8.2 			"/>
			<polygon style="fill:#FFE37E;" points="739.9,8.2 740.1,-13.7 759.3,-13.9 759,8.1 			"/>
			<polygon style="fill:#FFE37E;" points="759.8,8.1 760.1,-13.9 777.9,-14 777.6,2.4 775.2,8 			"/>
			<polygon style="fill:#FFE37E;" points="778.5,0.9 778.8,-13.9 785.9,-13.9 785.7,0.9 			"/>
			<polygon style="fill:#FFE37E;" points="786.5,0.9 786.8,-13.9 793.9,-14 793.6,0.8 			"/>
			<polygon style="fill:#FFE37E;" points="699,43 691.3,35.2 700.1,28.1 703,28.1 702.9,43 			"/>
			<polygon style="fill:#FFE37E;" points="703.9,43.2 704,28.1 710.8,28 710.6,43.2 			"/>
			<polygon style="fill:#FFE37E;" points="711.7,43.2 711.8,28 727.2,27.9 727.1,43 			"/>
			<polygon style="fill:#FFE37E;" points="728.2,43.1 728.4,27.8 737.3,27.7 737.3,42.9 			"/>
			<polygon style="fill:#FFE37E;" points="697.1,64.7 683.9,64.7 683.9,47.3 697.2,58.9 			"/>
			<polygon style="fill:#FFE37E;" points="683.8,74.1 683.9,65.6 697.1,65.5 697,74 			"/>
			<polygon style="fill:#FFE37E;" points="733.6,61.2 733.9,44.1 738.2,44.1 738.5,27.7 754,27.6 753.9,50.4 748.3,55 748.3,61.1	"/>
			<polygon style="fill:#FFE37E;" points="730.8,74 698.1,74.1 698.3,58.4 683.9,46.3 690.8,36.3 698.5,44.6 732.8,44.3 732.4,71.4	"/>
			<polygon style="fill:#FFE37E;" points="755,38.4 755.1,27.6 762.4,27.5 762.3,38.3 			"/>
			<polygon style="fill:#FFE37E;" points="763.2,38.3 763.4,27.5 768.3,27.4 768.1,38.3 			"/>
			<polygon style="fill:#FFE37E;" points="683.7,97.3 683.8,92.8 695.1,92.7 695.1,97.2 			"/>
			<polygon style="fill:#FFE37E;" points="725.4,88.9 713.8,89 713.9,84.2 683.8,84.5 683.7,78.4 683.7,74.9 698.3,74.8 730.2,74.7 725.4,82.9 "/>
			<polygon style="fill:#FFE37E;" points="712.9,97 696,97.1 696.1,92 683.8,92.1 683.8,85.6 713,85.3 			"/>
			<polygon style="fill:#FFE37E;" points="778.6,38 769,38 769.1,27.4 774.7,27.4 783.1,34.9 783.2,35 780.8,37.6 			"/>
			<polygon style="fill:#FFE37E;" points="803.5,-2.7 803.7,-14.1 817.9,-14.2 817.8,-8.7 805.3,-2.7 			"/>
			<polygon style="fill:#FFE37E;" points="824.7,8 803.3,8 803.5,-1.6 805.8,-1.6 818.8,-8 818.9,-14.2 837.8,-14.3 837.2,7.8	"/>
			<polygon style="fill:#FFE37E;" points="860.5,7.3 860.6,7.3 838.3,7.5 838.4,1 838.8,-14.3 862.2,-14.4 861.6,7.3 			"/>
			<polygon style="fill:#FFE37E;" points="818.7,20.4 818.8,15.8 824.7,15.8 824.6,20.3 			"/>
			<polygon style="fill:#FFE37E;" points="848.8,20.2 848.9,15.6 854.8,15.5 854.7,20.1 			"/>
			<polygon style="fill:#FFE37E;" points="850,35.5 829.3,35.2 830.1,13.8 848.9,13.6 848.9,25.9 849.8,26 			"/>
			<polygon style="fill:#FFE37E;" points="802.8,35.6 803.1,16.1 818.1,16 818,21.1 824.4,21 824.2,35.6 			"/>
			<polygon style="fill:#FFCC00;" points="605.9,186.8 605.9,177.4 617.4,177.3 617.4,179.2 623.1,179.1 623.1,186.6 			"/>
			<polygon style="fill:#FFCC00;" points="605.8,229.5 605.7,188 632.6,187.7 632.5,229.1 			"/>
			<polygon style="fill:#FFCC00;" points="633.8,229.4 633.9,178.5 662,178.1 662,184.3 675,184.2 674.7,228.8 			"/>
			<polygon style="fill:#FFCC00;" points="696.9,200.8 697.1,184.5 707.6,184.4 707.4,200.7 			"/>
			<polygon style="fill:#FFCC00;" points="676.1,228.8 676.3,184.2 695.8,183.9 695.6,202 707,201.9 706.6,228.4 			"/>
			<polygon style="fill:#FFCC00;" points="708.7,200.6 708.8,184.4 717.3,184.3 717.1,200.5 			"/>
			<polygon style="fill:#FFCC00;" points="728.8,195.8 729,184.1 738.2,184 738.1,195.6 			"/>
			<polygon style="fill:#FFCC00;" points="718.4,200.5 718.6,184.2 727.6,184.1 727.5,200.4 			"/>
			<polygon style="fill:#FFCC00;" points="707.9,228.4 708.2,201.7 728.8,201.4 728.8,197 739.1,196.9 739.2,184.4 755.8,186.1 755.2,227.7 			"/>
			<polygon style="fill:#FFCC00;" points="756.5,227.7 757.1,186.8 777.3,186.6 776.6,227.4 			"/>
			<polygon style="fill:#FFCC00;" points="797.7,200.8 797.9,186.4 804.2,186.3 803.9,200.7 			"/>
			<polygon style="fill:#FFCC00;" points="777.9,227.4 778.5,186.6 797.2,186.4 796.9,201.5 803.8,201.4 803.2,227.1 			"/>
			<polygon style="fill:#FFCC00;" points="771.9,51 755.4,42.8 755.4,39.5 778.2,39.2 779.7,41.5 776.9,44.7 			"/>
			<polygon style="fill:#FFCC00;" points="767.1,57.9 753.7,52.2 755.3,51 755.3,44.5 771.1,52 			"/>
			<polygon style="fill:#FFCC00;" points="763.4,64.1 749.5,61.3 749.5,56.1 753,53.3 766.4,59 			"/>
			<polygon style="fill:#FFCC00;" points="759.6,71.1 733.7,71.4 733.8,62.6 750.8,62.4 762.7,65.2 			"/>
			<polygon style="fill:#F9C603;" points="808.5,72.2 774,71 774.2,68.4 777.7,57.5 808.6,66.1 			"/>
			<polygon style="fill:#F9C603;" points="808,81.6 771.6,80.5 773.7,72.3 808.2,73.4 			"/>
			<polygon style="fill:#FFCC00;" points="754.8,82.3 727.2,82.6 733.3,72.6 759.1,72.3 			"/>
			<polygon style="fill:#FFCC00;" points="726.6,89 726.7,83.7 754.4,83.5 752.6,88.8 			"/>
			<polygon style="fill:#FFCC00;" points="683.7,104.3 683.7,98.6 712.9,98.3 712.9,104 			"/>
			<polygon style="fill:#FFCC00;" points="683.6,111.1 683.7,105.4 712.9,105.1 709,110.8 			"/>
			<polygon style="fill:#FFCC00;" points="747.4,119.3 683.6,120 683.6,112.4 709.2,112.2 713.8,105.7 713.9,105.3 714,90.3 752.3,90 751.4,93.2 748.8,105.2 748.6,106.4 748.1,110.4 747.6,114.9 			"/>
			<polygon style="fill:#F9C603;" points="807.7,94.9 769,90.8 771.2,82 807.9,82.9 			"/>
			<polygon style="fill:#F9C603;" points="807.8,99 768,93.6 768.7,91.9 807.9,96.4 			"/>
			<polygon style="fill:#FFCC00;" points="762.7,116 764.8,107.8 779.9,110.3 779.8,115.8 			"/>
			<polygon style="fill:#FFCC00;" points="807.9,114.1 765.1,106.7 767.2,98.8 808.1,104.5 			"/>
			<polygon style="fill:#FFCC00;" points="758.9,128 760.2,123.8 762.4,117.1 780.8,116.9 780.9,110.4 808,115.6 807.8,127.5 			"/>
			<polygon style="fill:#FFCC00;" points="758.8,136.2 758.9,129.2 783.2,128.9 783.1,135.9 			"/>
			<polygon style="fill:#FFCC00;" points="758.6,143.8 758.7,137.3 783.1,137.1 783,143.5 			"/>
			<polygon style="fill:#FFCC00;" points="758.4,155.2 758.6,145 782.9,144.6 782.8,154.9 			"/>
			<polygon style="fill:#FFCC00;" points="758.3,163.6 758.4,156.3 779,156.1 778.9,163.4 			"/>
			<polygon style="fill:#FFCC00;" points="779.8,169.2 780,156 783.8,156 784.2,129 807.9,128.8 807.1,168.9 			"/>
			<polygon style="fill:#FFCC00;" points="683.5,129.2 683.5,121.2 727.8,120.7 727.7,128.7 			"/>
			<polygon style="fill:#FFCC00;" points="728.8,125.7 728.8,120.7 747.4,120.5 747.3,125.5 			"/>
			<polygon style="fill:#FFCC00;" points="683.5,136.1 683.5,130.3 727.9,129.8 727.8,135.6 			"/>
			<polygon style="fill:#FFCC00;" points="728.7,137.9 728.8,126.8 747.3,126.6 747.2,137.7 			"/>
			<polygon style="fill:#FFCC00;" points="683.4,146 683.4,137.3 727.8,136.8 727.7,145.5 			"/>
			<polygon style="fill:#FFCC00;" points="728.7,145.4 728.8,139 747.3,138.8 747.2,145.2 			"/>
			<polygon style="fill:#FFCC00;" points="683.4,151.5 683.4,147.1 702.4,146.9 702.4,151.2 			"/>
			<polygon style="fill:#FFCC00;" points="683.4,156.3 683.4,152.1 702.4,152 702.3,156.1 			"/>
			<polygon style="fill:#FFCC00;" points="683.3,161 683.3,157.3 696.3,157.2 696.3,160.9 			"/>
			<polygon style="fill:#FFCC00;" points="687.4,169.6 683.3,166 683.3,161.9 696.3,161.7 696.2,169.5 			"/>
			<polygon style="fill:#FFCC00;" points="697,169.5 697.1,157.1 702.3,157 702.2,169.4 			"/>
			<polygon style="fill:#FFCC00;" points="703.1,169.4 703.3,146.8 718.8,146.7 718.9,152.1 711.3,152.2 711.1,169.3 			"/>
			<polygon style="fill:#FFCC00;" points="712.1,169.4 712.3,153.3 718.7,153.3 718.6,169.3 			"/>
			<polygon style="fill:#FFCC00;" points="719.5,169.9 719.8,146.9 726.4,146.8 726.1,169.8 			"/>
			<polygon style="fill:#FFCC00;" points="727.1,152.3 727.2,146.8 747.2,146.6 747.2,152.1 			"/>
			<polygon style="fill:#FFCC00;" points="727.1,169.8 727.1,165 734.2,164.9 734.1,169.7 			"/>
			<polygon style="fill:#FFCC00;" points="734.7,169.7 734.8,164.3 727.2,164.4 727.3,153.1 740,153 739.8,169.6 			"/>
			<polygon style="fill:#FFCC00;" points="740.7,164.7 740.9,153.2 747.1,153.1 747,164.7 			"/>
			<polygon style="fill:#FFCC00;" points="615.7,103.3 615.7,88.1 662.4,87.6 662.3,102.8 			"/>
			<polygon style="fill:#FFCC00;" points="615.7,110.3 615.7,104.4 662.3,104 662.3,109.8 			"/>
			<polygon style="fill:#FFCC00;" points="615.7,117.3 615.7,111.7 662.3,111.2 662.2,116.8 			"/>
			<polygon style="fill:#FFCC00;" points="615.7,123.9 615.7,118.6 662.2,118.1 662.2,123.4 			"/>
			<polygon style="fill:#FFCC00;" points="615.7,130.4 615.7,125.1 662.2,124.6 662.2,129.9 			"/>
			<polygon style="fill:#FFCC00;" points="615.7,137.1 615.7,131.7 662.2,131 662.2,136.6 			"/>
			<polygon style="fill:#FFCC00;" points="662.1,143.2 615.8,143.7 615.7,138.2 662.2,137.6 			"/>
			<polygon style="fill:#FFCC00;" points="615.8,150.3 615.8,144.8 662.1,144.3 662.1,149.8 			"/>
			<polygon style="fill:#FFCC00;" points="615.8,162.3 615.8,151.3 630,151.2 630,162.2 			"/>
			<polygon style="fill:#FFCC00;" points="629.9,162.1 630,151.2 641.7,151.1 641.7,162 			"/>
			<polygon style="fill:#FFCC00;" points="642.4,162 642.4,151.1 662.1,150.9 662.1,161.8 			"/>
			<polygon style="fill:#EE9941;" points="814.5,227.1 803.9,227.2 804.4,201.6 814.7,201.5 			"/>
			<polygon style="fill:#EE9941;" points="823.7,227.1 815,227.1 815.4,201.6 815.5,196.3 824.4,196.1 			"/>
			<polygon style="fill:#EE9941;" points="824.4,227.1 825,196.1 844.5,195.9 843.8,226.8 			"/>
			<polygon style="fill:#EE9941;" points="844.9,226.8 845.5,195.8 860.9,195.6 860.2,226.6 			"/>
			<polygon style="fill:#EE9941;" points="863.7,226.5 864.5,196.3 915,195.6 914.1,225.8 			"/>
			<path style="fill:#EE9941;" d="M972.1,225.1l-46.5,0.6l0.9-30.2l46.7-0.6L972.1,225.1z M935.6,203l-0.5,15l27.3-0.4l0.5-15 L935.6,203"/>
			<polygon style="fill:#EF9A42;" points="868.9,13.4 869.2,-0.3 890.2,-0.5 889.8,13.2 			"/>
			<polygon style="fill:#EF9A42;" points="868.5,31 868.9,14.5 882.5,14.4 882.1,30.9 			"/>
			<polygon style="fill:#EF9A42;" points="868.1,49.6 868.5,32.2 882,32.1 881.5,49.5 			"/>
			<polygon style="fill:#EF9A42;" points="867.7,62.7 868,50.6 888.8,50.5 888.5,62.5 			"/>
			<polygon style="fill:#EF9A42;" points="889.5,62.8 889.9,50.7 909.2,50.5 910.3,13 891.1,13.2 891.6,-0.5 924,-0.7 922.1,62.5 	"/>
			<path style="fill:#EF9A42;" d="M974.3,74.9l-44,0.4l2.3-76.1l44.3-0.3L974.3,74.9z M945.9,12.2l-1.6,50.1l16.6-0.1l1.7-50.1 L945.9,12.2"/>
			<polygon style="fill:#EF9A42;" points="866.2,103.4 866.9,73.7 881.1,73.5 880.3,103.3 			"/>
			<polygon style="fill:#EF9A42;" points="865.6,121.6 866.1,104.8 880.2,104.6 879.8,121.4 			"/>
			<polygon style="fill:#EF9A42;" points="865.5,131.9 865.7,122.8 879.8,122.7 879.6,131.7 			"/>
			<polygon style="fill:#EF9A42;" points="864.8,152.2 865.3,132.8 879.5,132.6 879.1,152 			"/>
			<polygon style="fill:#EF9A42;" points="896.9,138.3 898.3,85.1 882.3,85.3 882.5,73.2 911.6,73 909.7,138.1 			"/>
			<polygon style="fill:#EF9A42;" points="930.3,134.9 918.3,134.9 919.7,85.7 973.9,85.2 972.2,134.2 959.4,134.4 960.7,97.3
				931.5,97.5 			"/>
			<polygon style="fill:#EF9A42;" points="879.9,152 880.3,140.1 894.4,140 894.1,151.8 			"/>
			<polygon style="fill:#EF9A42;" points="895.2,151.8 895.5,140 909.6,139.8 909.3,151.7 			"/>
			<polygon style="fill:#EF9A42;" points="917.8,151.5 918.2,136.3 927.9,136.2 927.5,151.3 			"/>
			<polygon style="fill:#EF9A42;" points="928.4,151.3 928.9,136.2 937.6,136.1 937.1,151.2 			"/>
			<polygon style="fill:#EF9A42;" points="938.1,151.2 938.6,136.1 946.5,136.1 946,151.1 			"/>
			<polygon style="fill:#EF9A42;" points="962.5,150.9 947,151.1 947.6,136.1 963,136.1 			"/>
			<polygon style="fill:#EF9A42;" points="963.4,150.9 963.9,136.3 972.1,136.2 971.6,150.8 			"/>
			<polygon style="fill:#FFCC00;" points="672.1,107.4 672,103.8 668.3,102.3 668.3,98.6 668.4,98.4 668.7,98.3 668.9,98.2 678.7,98.1 678.8,98.1 679.3,98.1 679.7,98.1 679.9,98.1 680.1,98.2 680.2,98.3 680.2,98.5 680.2,98.8 680.2,99.2 680.2,106.2 678.5,107.4 			"/>
			<polygon style="fill:#FFCC00;" points="668.2,166.1 667.9,166 667.8,166 667.7,165.9 667.6,165.7 667.6,161.4 671.2,157.4 676.2,157.4 676.5,157.4 677.4,157.4 678,157.4 678.3,157.5 678.5,157.6 678.7,157.8 678.8,157.9 678.9,158 679,158 679,158.1 679,158.3 679,158.4 679,164.9 679,165 679,165.1 678.9,165.2 678.8,165.4 678.7,165.5 678.7,165.5 678.5,165.6 678.3,165.8 677.8,165.9 677.4,165.9 675.4,166 674.8,166 674.3,166 	"/>
			<polygon style="fill:#FFCC00;" points="668.3,136.5 668.3,130.9 679.9,130.8 679.9,136.4 			"/>
		</g>
		<polygon style="fill:#EE9941;" points="819,208.2 821.1,207.8 820.1,204.9 818,205.2 		"/>
		<g>
			<polygon style="fill:#FFE37E;" points="828.6,35.3 861,35.2 861,34.5 861.4,15.5 855.5,15.5 855.4,20.7 849.1,20.8 848.8,29.7	828.6,29.8 			"/>
		</g>
	</g>
</g>
<g id="Layer_2">
	<path style="fill:none;stroke:#000000;stroke-width:2;stroke-miterlimit:10;" d="M664.7,95.5"/>
	<path style="fill:none;stroke:#000000;stroke-width:2;stroke-miterlimit:10;" d="M665.1,173.7"/>
	<path style="fill:none;stroke:#000000;stroke-width:2;stroke-miterlimit:10;" d="M680.2,95.5"/>
	<path style="fill:none;stroke:#000000;stroke-width:3;stroke-miterlimit:10;" d="M672.4,86.3"/>
	<path style="fill:none;stroke:#000000;stroke-width:3;stroke-miterlimit:10;" d="M672.4,86.3"/>
	<path style="fill:none;stroke:#000000;stroke-width:3;stroke-miterlimit:10;" d="M680.2,95.5"/>
	<line style="fill:none;stroke:#000000;stroke-width:2;stroke-miterlimit:10;" x1="672.4" y1="86.3" x2="672.4" y2="-2.6"/>
	<line style="fill:none;stroke:#000000;stroke-width:2;stroke-miterlimit:10;" x1="671.5" y1="10.4" x2="782.2" y2="10"/>
	<path style="fill:none;stroke:#000000;stroke-width:3;stroke-miterlimit:10;" d="M718.4,12.4"/>
	<line style="fill:none;stroke:#000000;stroke-width:3;stroke-miterlimit:10;" x1="753.7" y1="176.1" x2="753.7" y2="118.1"/>
	<path style="fill:none;stroke:#000000;stroke-width:3;stroke-miterlimit:10;" d="M753.7,118.1c0.3-12.2,2.2-29.1,9.4-45.8
		c6.6-15.3,17.8-30.5,20.3-33.9c0.8-1,1.4-1.9,1.8-2.5"/>
	<path style="fill:none;stroke:#000000;stroke-width:2;stroke-miterlimit:10;" d="M761.7,92.7"/>
	<path style="fill:none;stroke:#000000;stroke-width:2;stroke-miterlimit:10;" d="M809.2,101.3"/>
	<path style="fill:none;stroke:#000000;stroke-width:2;stroke-miterlimit:10;" d="M783.5,5.7"/>
	<path style="fill:none;stroke:#000000;stroke-width:2;stroke-miterlimit:10;" d="M776.1,12.1"/>
	<path style="fill:none;stroke:#000000;stroke-width:3;stroke-miterlimit:10;" d="M797.7,17.9"/>
	<path style="fill:none;stroke:#000000;stroke-width:3;stroke-miterlimit:10;" d="M783.5,5.7"/>
	<path style="fill:none;stroke:#000000;stroke-width:3;stroke-miterlimit:10;" d="M797.7,17.9"/>
	<path style="fill:none;stroke:#000000;stroke-width:3;stroke-miterlimit:10;" d="M786.6,37.2"/>
	<line style="fill:none;stroke:#000000;stroke-width:2;stroke-miterlimit:10;" x1="866.3" y1="4.6" x2="865" y2="58.7"/>
	<path style="fill:none;stroke:#000000;stroke-width:2;stroke-miterlimit:10;" d="M862.2,159.6"/>
	<path style="fill:none;stroke:#000000;stroke-width:2;stroke-miterlimit:10;" d="M863.8,73"/>
	<path style="fill:none;stroke:#000000;stroke-width:3;stroke-miterlimit:10;" d="M862.2,128.8"/>
	<path style="fill:none;stroke:#000000;stroke-width:3;stroke-miterlimit:10;" d="M807.7,177.3"/>
	<path style="fill:none;stroke:#000000;stroke-width:2;stroke-miterlimit:10;" d="M815,192.5"/>
	<path style="fill:none;stroke:#000000;stroke-width:2;stroke-miterlimit:10;" d="M807.7,177.3"/>
	<path style="fill:none;stroke:#000000;stroke-width:3;stroke-miterlimit:10;" d="M803.9,12.1"/>
	<line style="fill:none;stroke:#000000;stroke-width:2;stroke-miterlimit:10;" x1="796.7" y1="12.4" x2="861.2" y2="11.8"/>
	<path style="fill:none;stroke:#000000;stroke-miterlimit:10;" d="M824.7,38.3"/>
	<path style="fill:none;stroke:#000000;stroke-miterlimit:10;" d="M826.3,11.8"/>
	<path style="fill:none;stroke:#000000;stroke-miterlimit:10;" d="M797.2,40.1"/>
	<path style="fill:none;stroke:#000000;stroke-miterlimit:10;" d="M824.7,38.3"/>
	<path style="fill:none;stroke:#000000;stroke-width:3;stroke-miterlimit:10;" d="M797.2,0.1"/>
	<path style="fill:none;stroke:#000000;stroke-width:3;stroke-miterlimit:10;" d="M791.3,11.8"/>
	<path style="fill:none;stroke:#000000;stroke-width:2;stroke-miterlimit:10;" d="M752.3,174.8"/>
	<line style="fill:none;stroke:#000000;stroke-width:2;stroke-miterlimit:10;" x1="665.1" y1="113.1" x2="679.8" y2="113.1"/>
	<path style="fill:none;stroke:#000000;stroke-width:2;stroke-miterlimit:10;" d="M679.8,128"/>
	<path style="fill:none;stroke:#000000;stroke-width:2;stroke-miterlimit:10;" d="M665.1,128.8"/>
	<line style="fill:none;stroke:#000000;stroke-width:2;stroke-miterlimit:10;" x1="665.1" y1="141.4" x2="680.2" y2="141.4"/>
	<path style="fill:none;stroke:#000000;stroke-width:2;stroke-miterlimit:10;" d="M862.5,163.8"/>
	<line style="fill:none;stroke:#000000;stroke-width:2;stroke-miterlimit:10;" x1="862.5" y1="163.8" x2="972.1" y2="159.9"/>
	<line style="fill:none;stroke:#000000;stroke-width:2;stroke-miterlimit:10;" x1="863.8" y1="73" x2="865" y2="58.7"/>
	<path style="fill:none;stroke:#000000;stroke-width:2;stroke-miterlimit:10;" d="M855.8,11.8"/>
	<path style="fill:none;stroke:#000000;stroke-width:3;stroke-miterlimit:10;" d="M809.6,178.1"/>
	<path style="fill:none;stroke:#000000;stroke-width:3;stroke-miterlimit:10;" d="M759.8,177.1"/>
	<path style="fill:none;stroke:#000000;stroke-width:3;stroke-miterlimit:10;" d="M860.9,134.1"/>
	<path style="fill:none;stroke:#000000;stroke-width:3;stroke-miterlimit:10;" d="M809.6,178.1"/>
	<line style="fill:none;stroke:#000000;stroke-width:2;stroke-miterlimit:10;" x1="809.6" y1="174.2" x2="809.6" y2="192.6"/>
	<path style="fill:none;stroke:#000000;stroke-width:2;stroke-miterlimit:10;" d="M759.8,180.9"/>
	<path style="fill:none;stroke:#000000;stroke-width:2;stroke-miterlimit:10;" d="M759.8,169.9"/>
	<line style="fill:none;stroke:#000000;stroke-width:2;stroke-miterlimit:10;" x1="804.2" y1="192.1" x2="913.8" y2="192.5"/>
	<path style="fill:none;stroke:#000000;stroke-width:2;stroke-miterlimit:10;" d="M863.8,73c-0.2,15.3-0.4,30.6-0.7,45.9
		c-0.2,15-0.4,30-0.6,44.9"/>
	<path style="fill:none;stroke:#000000;stroke-width:3;stroke-miterlimit:10;" d="M862.2,128.8"/>
	<line style="fill:none;stroke:#000000;stroke-width:3;stroke-miterlimit:10;" x1="664.2" y1="100.6" x2="664.2" y2="173"/>
	<path style="fill:none;stroke:#000000;stroke-width:3;stroke-miterlimit:10;" d="M786.6,37.2"/>
	<path style="fill:none;stroke:#000000;stroke-width:3;stroke-miterlimit:10;" d="M783.5,29.9"/>
	<path style="fill:none;stroke:#000000;stroke-width:3;stroke-miterlimit:10;" d="M771.6,20.2"/>
	<path style="fill:none;stroke:#000000;stroke-width:3;stroke-miterlimit:10;" d="M784.7,8.4"/>
	<path style="fill:none;stroke:#000000;stroke-width:2;stroke-miterlimit:10;" d="M758,11.9"/>
	<path style="fill:none;stroke:#000000;stroke-width:3;stroke-miterlimit:10;" d="M695.9,24.8c27.7,0,52.4-0.4,80.1-0.4
		c1.6,2,3,2.5,4,2.7c1.8,0.2,3.7-0.8,5.3,0.4c0,0,0.2,0.1,0.4,0.3c1.9,2,0,7.9-0.4,9.1"/>
	<line style="fill:none;stroke:#000000;stroke-width:2;stroke-miterlimit:10;" x1="809.2" y1="101.3" x2="755.8" y2="90"/>
	<path style="fill:none;stroke:#000000;stroke-width:3;stroke-miterlimit:10;" d="M665.1,101.1c-1,5.4-1.2-2.2,0.8-9.8
		c0.8-2.9,5.4-7.2,6.5-8.8"/>
	<path style="fill:none;stroke:#000000;stroke-width:3;stroke-miterlimit:10;" d="M674.4,84.6c1,1,2.7,3,4,5.8
		c2.6,5.6,1.9,10.9,1.8,12.6c-0.8,8-0.6,34,0,73.1"/>
	<path style="fill:none;stroke:#000000;stroke-width:3;stroke-miterlimit:10;" d="M672.7,83.3c0.3,0.4,0.6,0.8,0.8,1.2
		c0.1-0.5,0-1.1-0.3-1.5c0,0.3,0.3,0.5,0.6,0.5c0.3,0.1,0.6,0.2,0.7,0.4s-0.6,0.1-0.4,0"/>
	<path style="fill:none;stroke:#000000;stroke-width:3;stroke-miterlimit:10;" d="M710.4,10.7c-5,4.7-6.5,9-14.5,14.1
		c-7.7,4.9-17.3,8.6-23.5,11.1"/>
	<line style="fill:none;stroke:#000000;stroke-width:2;stroke-miterlimit:10;" x1="862.5" y1="163.8" x2="862.2" y2="193.6"/>
	<path style="fill:none;stroke:#000000;stroke-width:2;stroke-miterlimit:10;" d="M642.5,172.5"/>
	<path style="fill:none;stroke:#000000;stroke-width:2;stroke-miterlimit:10;" d="M809.6,175.2l-132.8,0.4
		c-4.1-2.4-8.3-4.8-12.4-7.2"/>
	<line style="fill:none;stroke:#000000;stroke-width:2;stroke-miterlimit:10;" x1="596.5" y1="172.5" x2="665.4" y2="172.5"/>
	<path style="fill:none;stroke:#000000;stroke-width:3;stroke-miterlimit:10;" d="M775.5,23.6c-2.9-1.4-2.4-5.3-2-7.7
		c0.3-1.5,13.8-9.3,19.4-5.2c2.2,1.5,2.9,9.9,3.7,9.6c1.6-0.4,1.8-16.4,1-22.9"/>
	<line style="fill:none;stroke:#000000;stroke-width:3;stroke-miterlimit:10;" x1="785.7" y1="27.8" x2="796.7" y2="20.4"/>
	<path style="fill:none;stroke:#000000;stroke-width:3;stroke-miterlimit:10;" d="M694.6,10.6c-10.8,6.9-19.4,9.9-22.5,11.1"/>
</g>
<g id="Layer_3">
	<rect x="819.2" y="113.1" style="fill:none;" width="37" height="26.3"/>
	<text transform="matrix(1 0 0 1 819.1777 121.6194)" style="font-family:'ArialMT'; font-size:12px;">Test </text>
	<text transform="matrix(1 0 0 1 819.1777 136.0194)" style="font-family:'ArialMT'; font-size:12px;">TORG</text>
</g>
</svg>
